<?xml version="1.0" encoding="UTF-8"?>
<svg xmlns="http://www.w3.org/2000/svg" xmlns:xlink="http://www.w3.org/1999/xlink" width="2114.14pt" height="2855.66pt" viewBox="0 0 2114.14 2855.66" version="1.1">
<g id="surface1">
<path style=" stroke:none;fill-rule:nonzero;fill:rgb(0%,66.699219%,90.59906%);fill-opacity:1;" d="M 2114.140625 1798.011719 L 2114.140625 215.378906 C 1789.550781 76.808594 1432.269531 0 1057.070313 0 C 681.851563 0 324.601563 76.808594 0 215.378906 L 0 1798.011719 C 0 2382.140625 473.269531 2855.660156 1057.070313 2855.660156 C 1640.851563 2855.660156 2114.140625 2382.140625 2114.140625 1798.011719 "/>
<path style=" stroke:none;fill-rule:nonzero;fill:rgb(16.099548%,33.699036%,45.098877%);fill-opacity:1;" d="M 2003.699219 1806.808594 L 2003.699219 291.308594 C 1710.648438 174.570313 1391.289063 110.441406 1057.070313 110.441406 C 722.835938 110.441406 403.488281 174.570313 110.441406 291.308594 L 110.441406 1806.808594 C 110.441406 2333.789063 534.257813 2761 1057.070313 2761 C 1579.871094 2761 2003.699219 2333.789063 2003.699219 1806.808594 "/>
<path style=" stroke:none;fill-rule:nonzero;fill:rgb(99.598694%,100%,99.598694%);fill-opacity:1;" d="M 1086.589844 1913.269531 C 1086.558594 1987.859375 1086.640625 2062.480469 1086.589844 2137.058594 C 1086.570313 2167.96875 1107.570313 2193.03125 1133.578125 2193.03125 C 1190.46875 2193.03125 1247.351563 2193.03125 1304.25 2193.03125 C 1304.308594 2174.691406 1304.390625 2156.371094 1304.449219 2138.050781 C 1247.539063 2137.589844 1190.589844 2137.28125 1133.640625 2137.160156 C 1133.671875 2109.210938 1133.71875 2081.261719 1133.769531 2053.339844 C 1182.921875 2053.648438 1232.140625 2054.230469 1281.28125 2055.128906 C 1281.339844 2036.75 1281.210938 2018.339844 1281.28125 1999.96875 C 1232.109375 1998.71875 1183.011719 1997.890625 1133.828125 1997.480469 C 1133.859375 1969.539063 1133.910156 1941.609375 1133.921875 1913.691406 C 1175.320313 1914.179688 1216.691406 1915.109375 1258.039063 1916.429688 C 1284.140625 1917.230469 1305.378906 1893.480469 1305.5 1863.148438 C 1248.378906 1860.429688 1191.210938 1858.640625 1134.011719 1857.789063 C 1107.851563 1857.410156 1086.601563 1882.351563 1086.589844 1913.269531 M 832.359375 1917.230469 C 832.667969 2009.171875 832.019531 2101.070313 832.359375 2193.03125 L 880.085938 2193.03125 C 879.953125 2146.800781 880.214844 2100.578125 880.085938 2054.359375 C 925.289063 2053.710938 970.558594 2053.320313 1015.78125 2053.171875 C 1015.75 2034.53125 1015.75 2015.871094 1015.75 1997.230469 C 970.464844 1997.460938 925.328125 1998 880.085938 1998.921875 C 880 1971.160156 880.152344 1943.441406 880.085938 1915.71875 C 917.5 1914.640625 954.585938 1913.921875 992.027344 1913.539063 C 1018.148438 1913.261719 1039.320313 1888.171875 1039.320313 1857.269531 C 986.050781 1857.441406 932.792969 1858.441406 879.566406 1860.238281 C 853.4375 1861.179688 832.234375 1886.820313 832.359375 1917.230469 M 431.652344 1658.871094 C 408.382813 1663.96875 384.976563 1669.328125 361.828125 1675.011719 C 361.789063 1650.921875 361.875 1626.820313 361.828125 1602.71875 C 384.921875 1596.269531 408.417969 1590.128906 431.652344 1584.328125 C 431.738281 1609.179688 431.566406 1634.03125 431.652344 1658.871094 M 431.652344 1894.890625 C 447.246094 1893.011719 462.742188 1891.160156 478.367188 1889.410156 C 477.921875 1784.011719 478.808594 1678.570313 478.367188 1573.160156 C 478.238281 1545.128906 456.589844 1527.609375 430.960938 1534.640625 C 407.746094 1540.921875 384.613281 1547.550781 361.566406 1554.539063 C 336.097656 1562.351563 315.558594 1590.199219 315.542969 1616.078125 L 315.542969 1910.441406 C 341.265625 1906.820313 361.882813 1882.441406 361.828125 1855.710938 C 361.75 1811.539063 361.902344 1767.351563 361.828125 1723.191406 C 385.015625 1718.050781 408.363281 1713.179688 431.652344 1708.558594 C 431.878906 1770.660156 431.429688 1832.769531 431.652344 1894.890625 M 713.128906 1800.890625 C 712.621094 1692.71875 713.632813 1584.558594 713.128906 1476.398438 C 687.007813 1480.230469 665.601563 1507.769531 665.761719 1537.261719 C 666.007813 1587.050781 665.523438 1636.820313 665.761719 1686.578125 C 641.855469 1621.75 618.320313 1558.300781 594.492188 1496.519531 C 568.523438 1501.699219 548.324219 1529.519531 548.464844 1558.058594 C 548.894531 1644.449219 548.03125 1730.828125 548.464844 1817.21875 C 574.386719 1814.21875 595.601563 1788.460938 595.457031 1759.351563 C 595.195313 1710.480469 595.710938 1661.589844 595.457031 1612.71875 C 619.289063 1675.28125 642.828125 1739.429688 666.722656 1804.910156 C 680.464844 1803.660156 711.164063 1801.058594 713.128906 1800.890625 M 598.042969 2193.03125 L 768.703125 2193.03125 C 768.628906 2174.800781 768.558594 2156.601563 768.464844 2138.390625 C 711.550781 2138.910156 654.113281 2139.621094 597.234375 2140.460938 C 597.097656 2114.171875 597.359375 2087.878906 597.234375 2061.601563 C 646.253906 2059.78125 695.449219 2058.261719 744.5625 2057.039063 C 744.460938 2038.890625 744.398438 2020.769531 744.308594 2002.640625 C 695.1875 2004.359375 646.253906 2006.5 597.234375 2009.039063 C 597.105469 1982.738281 597.359375 1956.480469 597.234375 1930.179688 C 638.394531 1927.140625 679.078125 1924.5 720.355469 1922.289063 C 746.410156 1920.910156 767.425781 1895.488281 767.300781 1865.28125 C 710.238281 1868.449219 653.273438 1872.570313 596.425781 1877.621094 C 570.449219 1880.011719 549.550781 1905.308594 549.675781 1933.859375 C 550.011719 2002.960938 550.359375 2072.078125 550.703125 2141.191406 C 550.835938 2169.730469 572.039063 2192.949219 598.042969 2193.03125 M 890.855469 1596.109375 C 871.0625 1597.21875 851.234375 1598.550781 831.460938 1600.070313 C 831.367188 1572.511719 831.558594 1544.910156 831.460938 1517.351563 C 851.242188 1515.589844 871.039063 1514.109375 890.855469 1512.820313 C 890.933594 1540.578125 890.792969 1568.351563 890.855469 1596.109375 M 890.855469 1790.449219 C 906.648438 1789.839844 922.523438 1789.320313 938.308594 1788.890625 C 938.125 1696.011719 938.480469 1603.089844 938.308594 1510.199219 C 938.265625 1479.390625 916.613281 1455.429688 890.332031 1457.289063 C 870.5 1458.679688 850.6875 1460.300781 830.882813 1462.179688 C 804.644531 1464.699219 784.066406 1491.710938 784.1875 1521.941406 C 784.558594 1613.238281 783.828125 1704.550781 784.1875 1795.839844 C 810.304688 1794.21875 831.566406 1768.488281 831.460938 1737.96875 C 831.367188 1710.398438 831.558594 1682.820313 831.460938 1655.230469 C 851.210938 1653.859375 871.089844 1652.660156 890.855469 1651.640625 C 890.980469 1697.921875 890.730469 1744.179688 890.855469 1790.449219 M 1116.53125 1508.140625 C 1116.449219 1582.691406 1116.601563 1657.21875 1116.53125 1731.789063 C 1096.761719 1731.480469 1076.839844 1731.308594 1057.070313 1731.308594 L 1057.070313 1507.46875 C 1076.910156 1507.46875 1096.699219 1507.671875 1116.53125 1508.140625 M 1163.929688 1732.808594 C 1164.070313 1658.421875 1163.808594 1584.050781 1163.929688 1509.679688 C 1164 1478.890625 1142.960938 1452.898438 1116.660156 1452.238281 C 1080.921875 1451.339844 1045.140625 1451.269531 1009.390625 1451.980469 C 1009.5 1563.820313 1009.570313 1675.679688 1009.679688 1787.53125 C 1045.210938 1787.160156 1080.769531 1787.199219 1116.328125 1787.691406 C 1142.488281 1788.011719 1163.871094 1763.609375 1163.929688 1732.808594 M 1342.039063 1523.21875 C 1341.738281 1596.109375 1342.351563 1669.019531 1342.039063 1741.929688 C 1322.339844 1740.460938 1302.421875 1739.121094 1282.679688 1737.949219 C 1282.941406 1664.429688 1282.429688 1590.871094 1282.679688 1517.328125 C 1302.460938 1519.078125 1322.308594 1521.03125 1342.039063 1523.21875 M 1389.039063 1745.78125 C 1389.359375 1673.488281 1388.699219 1601.199219 1389.039063 1528.921875 C 1389.171875 1499.050781 1368.761719 1471.710938 1342.570313 1468.558594 C 1322.808594 1466.179688 1303.03125 1464.039063 1283.25 1462.179688 C 1257.011719 1459.660156 1235.320313 1482.960938 1235.238281 1513.609375 C 1235.019531 1587.550781 1235.441406 1661.5 1235.238281 1735.460938 C 1235.148438 1766.121094 1255.960938 1791.789063 1282.089844 1793.109375 C 1301.800781 1794.160156 1321.519531 1795.308594 1341.210938 1796.589844 C 1367.308594 1798.261719 1388.878906 1775.640625 1389.039063 1745.78125 M 1576.46875 1883.179688 C 1523.640625 1877.878906 1470.660156 1873.378906 1417.628906 1869.71875 C 1391.578125 1867.839844 1370.148438 1890.949219 1370.011719 1921.050781 C 1369.878906 1948.230469 1370.128906 1975.441406 1370.011719 2002.640625 C 1369.871094 2032.730469 1390.699219 2057.589844 1416.710938 2058.300781 C 1457.921875 2059.488281 1498.921875 2060.890625 1540.109375 2062.488281 C 1539.96875 2088.609375 1540.230469 2114.710938 1540.109375 2140.789063 C 1483.238281 2139.929688 1426.140625 2139.210938 1369.21875 2138.609375 C 1369.148438 2156.75 1369.050781 2174.890625 1368.980469 2193.03125 L 1539.628906 2193.03125 C 1565.640625 2192.949219 1587.019531 2169.910156 1587.140625 2141.578125 C 1587.269531 2115.859375 1587.019531 2090.140625 1587.140625 2064.421875 C 1587.28125 2036.078125 1566.53125 2011.789063 1540.570313 2010.289063 C 1499.410156 2008.039063 1458.398438 2006.070313 1417.171875 2004.410156 C 1417.289063 1977.480469 1417.03125 1950.53125 1417.171875 1923.578125 C 1454.488281 1925.75 1491.96875 1928.230469 1529.179688 1931.070313 C 1555.171875 1932.960938 1576.308594 1911.628906 1576.46875 1883.179688 M 1588.671875 1768.628906 C 1561.320313 1764.761719 1534.539063 1761.191406 1507.089844 1757.921875 C 1507.460938 1687.601563 1506.75 1617.300781 1507.089844 1546.960938 C 1507.230469 1517.921875 1486.199219 1490.21875 1460.140625 1485.71875 C 1459.691406 1574.660156 1460.589844 1663.660156 1460.140625 1752.621094 C 1459.96875 1782.171875 1480.308594 1807.988281 1506.289063 1810.660156 C 1533.710938 1813.539063 1561.289063 1816.679688 1588.671875 1820.070313 C 1588.75 1802.910156 1588.578125 1785.78125 1588.671875 1768.628906 M 1798.601563 1863.339844 L 1798.601563 1568.988281 C 1773.25 1560.609375 1752.339844 1576.019531 1752.308594 1602.71875 C 1752.160156 1687.058594 1752.441406 1771.390625 1752.308594 1855.710938 C 1729.019531 1852.03125 1706.011719 1848.519531 1682.640625 1845.21875 C 1683.011719 1741.679688 1682.28125 1638.160156 1682.640625 1534.640625 C 1667.171875 1530.480469 1651.550781 1526.441406 1636 1522.558594 C 1635.550781 1627.980469 1636.449219 1733.421875 1636 1838.808594 C 1635.878906 1866.851563 1656.089844 1891.839844 1681.929688 1894.890625 C 1705.320313 1897.738281 1728.679688 1900.730469 1752 1903.898438 C 1777.761719 1907.261719 1798.609375 1889.238281 1798.601563 1863.339844 "/>
<path style=" stroke:none;fill-rule:nonzero;fill:rgb(0%,66.699219%,90.59906%);fill-opacity:1;" d="M 824.839844 679.589844 C 824.925781 678.980469 824.449219 678.429688 823.824219 678.421875 L 442.808594 678.421875 C 441.800781 678.421875 441.375 679.699219 442.191406 680.289063 L 821.730469 956.109375 C 822.085938 956.371094 822.238281 956.839844 822.105469 957.269531 L 677.757813 1402.800781 C 677.4375 1403.769531 678.539063 1404.550781 679.355469 1403.96875 L 1009.308594 1164.101563 C 1009.859375 1163.691406 1009.890625 1162.871094 1009.351563 1162.449219 C 992.542969 1149.230469 784.710938 978.289063 824.839844 679.589844 "/>
<path style=" stroke:none;fill-rule:nonzero;fill:rgb(99.598694%,100%,99.598694%);fill-opacity:1;" d="M 1383.179688 1220.621094 C 1336.898438 1185.171875 1177.429688 1062.859375 1112.320313 1011.160156 C 1018.910156 936.921875 919.613281 826.921875 903.386719 616.289063 C 903.296875 615.148438 901.710938 614.929688 901.386719 616.019531 C 891.570313 649.019531 843.980469 835.429688 961.019531 1012.441406 C 995.046875 1063.898438 1048.160156 1124.429688 1115.5 1172.050781 C 1269.511719 1280.960938 1428.21875 1389.238281 1449.871094 1403.980469 C 1450.679688 1404.539063 1451.75 1403.75 1451.449219 1402.808594 L 1400.878906 1245.699219 C 1397.679688 1235.75 1391.53125 1227.011719 1383.179688 1220.621094 "/>
<path style=" stroke:none;fill-rule:nonzero;fill:rgb(0%,66.699219%,90.59906%);fill-opacity:1;" d="M 1671.378906 678.421875 L 1278.949219 678.421875 C 1278.269531 678.421875 1277.789063 679.121094 1278 679.800781 L 1347.929688 930.078125 C 1348.148438 930.800781 1348.949219 931.078125 1349.5 930.648438 L 1671.960938 680.371094 C 1672.75 679.761719 1672.351563 678.421875 1671.378906 678.421875 "/>
<path style=" stroke:none;fill-rule:nonzero;fill:rgb(82.398987%,34.899902%,31.799316%);fill-opacity:1;" d="M 1110.089844 922.558594 C 1104.679688 901.691406 1073.828125 776.269531 1080.671875 649.589844 C 1080.738281 648.46875 1082.339844 648.328125 1082.648438 649.421875 C 1127.269531 811.480469 1168.078125 933.71875 1181.480469 970.710938 C 1184.808594 979.859375 1190.601563 987.75 1198.261719 993.53125 L 1323.710938 1088.421875 C 1324.480469 1089 1325.511719 1088.238281 1325.230469 1087.300781 L 1199.671875 677.449219 C 1123.570313 409.371094 1138.449219 261.511719 1141.621094 237.800781 C 1141.75 236.808594 1140.5 236.261719 1139.871094 237 C 1067.578125 321.78125 1043.089844 470.539063 1039.410156 495.53125 C 1039.261719 496.53125 1037.828125 496.660156 1037.53125 495.691406 C 1026.320313 460.101563 1022.019531 427.179688 1018.609375 390.820313 C 1018.519531 389.839844 1017.199219 389.71875 1016.761719 390.621094 C 994.269531 438.601563 961.1875 547.359375 962.4375 627.328125 C 965.304688 811.460938 1090.691406 908.160156 1108.53125 923.609375 C 1109.289063 924.25 1110.328125 923.511719 1110.089844 922.558594 "/>
<path style=" stroke:none;fill-rule:nonzero;fill:rgb(99.598694%,100%,99.598694%);fill-opacity:1;" d="M 1245.210938 2438.148438 C 1266.148438 2438.148438 1270.921875 2456.441406 1270.921875 2473.46875 C 1270.921875 2496.410156 1258.660156 2525.851563 1236.238281 2525.851563 C 1223.078125 2525.851563 1210.53125 2515.320313 1210.53125 2489.28125 C 1210.53125 2462.011719 1222.46875 2438.148438 1245.210938 2438.148438 Z M 1291.859375 2351.71875 C 1287.070313 2350.800781 1285.589844 2350.800781 1284.679688 2350.800781 C 1276.898438 2350.800781 1257.179688 2361.320313 1245.789063 2369.988281 C 1206.03125 2400.691406 1185.691406 2449.308594 1185.691406 2485.261719 C 1185.691406 2510.351563 1194.96875 2547.210938 1235.328125 2547.210938 C 1277.808594 2547.210938 1296.640625 2506.011719 1296.640625 2472.558594 C 1296.640625 2433.210938 1274.21875 2418.960938 1253.28125 2418.960938 C 1242.820313 2418.960938 1235.640625 2422.648438 1229.058594 2425.769531 C 1255.671875 2384.859375 1274.21875 2371.230469 1309.5 2355.429688 Z M 1072.75 2378.988281 C 1080.238281 2374.949219 1082.921875 2374.648438 1098.761719 2374.648438 L 1147.511719 2374.648438 C 1130.46875 2399.109375 1108.949219 2433.210938 1100.558594 2448.699219 C 1075.738281 2494.550781 1073.058594 2529.550781 1073.058594 2535.75 C 1073.058594 2545.980469 1076.949219 2547.210938 1084.398438 2549.710938 L 1102.371094 2555.898438 C 1101.769531 2548.160156 1101.460938 2544.128906 1101.460938 2538.859375 C 1101.460938 2490.511719 1124.199219 2449.621094 1184.300781 2353.261719 L 1088.898438 2353.261719 C 1082.921875 2353.261719 1080.828125 2353.878906 1079.039063 2359.460938 Z M 987.597656 2372.171875 C 1003.148438 2372.171875 1010.921875 2387.648438 1010.921875 2407.488281 C 1010.921875 2429.789063 1001.058594 2460.46875 976.835938 2460.46875 C 966.96875 2460.46875 952.007813 2453.648438 952.007813 2426.398438 C 952.007813 2411.519531 958.894531 2372.171875 987.597656 2372.171875 Z M 911.644531 2543.511719 C 912.539063 2551.238281 915.527344 2555.589844 938.253906 2555.589844 C 1021.378906 2555.589844 1034.839844 2430.71875 1034.839844 2409.339844 C 1034.839844 2385.488281 1027.359375 2350.800781 986.695313 2350.800781 C 945.128906 2350.800781 927.191406 2392.609375 927.191406 2423.921875 C 927.191406 2457.980469 945.4375 2479.988281 972.050781 2479.988281 C 985.800781 2479.988281 993.28125 2472.558594 998.367188 2467.890625 C 989.09375 2505.089844 969.957031 2534.210938 936.460938 2534.210938 C 930.78125 2534.210938 920.914063 2533.589844 909.550781 2528.320313 Z M 850.007813 2356.679688 C 850.609375 2359.460938 851.8125 2362.878906 851.8125 2367.511719 C 851.8125 2371.859375 830.273438 2514.390625 830.273438 2514.390625 C 826.980469 2535.441406 823.699219 2540.109375 820.410156 2544.441406 L 845.226563 2544.441406 C 850.902344 2544.441406 851.511719 2542.261719 852.40625 2536.359375 L 880.816406 2350.800781 L 850.007813 2356.679688 "/>
</g>
</svg>
